<svg xmlns="http://www.w3.org/2000/svg" version="1.1" xmlns:xlink="http://www.w3.org/1999/xlink" xmlns:svgjs="http://svgjs.com/svgjs" width="1440" height="560" preserveAspectRatio="none" viewBox="0 0 1440 560"><g mask="url(&quot;#SvgjsMask1000&quot;)" fill="none"><rect width="1440" height="560" x="0" y="0" fill="#0e2a47"></rect><path d="M580.8655287559636 280.68055494157466L518.0257135908762 358.2812640061294 658.4662378205184 343.5203701066621z" fill="rgba(28, 83, 142, 0.4)" class="triangle-float3"></path><path d="M971.0915247198809 328.25904059023196L931.7664631613242 214.05076904660027 817.5581916176925 253.375830605157 856.8832531762492 367.5841021487887z" fill="rgba(28, 83, 142, 0.4)" class="triangle-float3"></path><path d="M412.49587466138615 85.11583798224417L508.84452235609274 112.74336813280232 502.11149373457664-45.59336848453658z" fill="rgba(28, 83, 142, 0.4)" class="triangle-float3"></path><path d="M473.50919294073645 141.39478433283162L501.59859538083776 43.435396544362135 403.6392075923683 15.34599410426081 375.54980515226697 113.3053818927303z" fill="rgba(28, 83, 142, 0.4)" class="triangle-float3"></path><path d="M299.9314078164701 553.3895266461388L340.8170755811908 499.1324129604736 238.9885711703326 464.93246815622507z" fill="rgba(28, 83, 142, 0.4)" class="triangle-float2"></path><path d="M1249.414,735.668C1295.697,734.656,1342.783,723.375,1368.674,684.998C1397.781,641.853,1406.766,585.384,1381.495,539.886C1355.595,493.257,1302.67,467.303,1249.414,470.286C1200.604,473.02,1165.359,511.166,1140.693,553.373C1115.729,596.089,1095.424,647.924,1120.767,690.417C1145.723,732.261,1200.705,736.733,1249.414,735.668" fill="rgba(28, 83, 142, 0.4)" class="triangle-float2"></path></g><defs><mask id="SvgjsMask1000"><rect width="1440" height="560" fill="#ffffff"></rect></mask><style>
            @keyframes float1 {
                0%{transform: translate(0, 0)}
                50%{transform: translate(-10px, 0)}
                100%{transform: translate(0, 0)}
            }

            .triangle-float1 {
                animation: float1 5s infinite;
            }

            @keyframes float2 {
                0%{transform: translate(0, 0)}
                50%{transform: translate(-5px, -5px)}
                100%{transform: translate(0, 0)}
            }

            .triangle-float2 {
                animation: float2 4s infinite;
            }

            @keyframes float3 {
                0%{transform: translate(0, 0)}
                50%{transform: translate(0, -10px)}
                100%{transform: translate(0, 0)}
            }

            .triangle-float3 {
                animation: float3 6s infinite;
            }
        </style></defs></svg>