<svg xmlns="http://www.w3.org/2000/svg" version="1.1" xmlns:xlink="http://www.w3.org/1999/xlink" xmlns:svgjs="http://svgjs.com/svgjs" width="1440" height="560" preserveAspectRatio="none" viewBox="0 0 1440 560"><g mask="url(&quot;#SvgjsMask1000&quot;)" fill="none"><rect width="1440" height="560" x="0" y="0" fill="#0e2a47"></rect><path d="M776.48 607.79C929.38 540.27 950.71 64.51 1157.03 58.08 1363.36 51.65 1426.82 279.02 1537.59 287.68" stroke="rgba(51,121,194,0.58)" stroke-width="2"></path><path d="M593.44 588.7C715.81 586.93 807.36 448.14 1059.97 440.45 1312.58 432.76 1395.43 206.61 1526.5 199.65" stroke="rgba(51,121,194,0.58)" stroke-width="2"></path><path d="M645.12 592.05C739.26 584.09 700.9 402.86 965.85 392.17 1230.8 381.48 1435.57 149.96 1607.31 145.77" stroke="rgba(51,121,194,0.58)" stroke-width="2"></path><path d="M387.88 617.57C519.81 596.76 583.57 281.74 800.61 278.37 1017.65 275 1006.97 348.37 1213.34 348.37 1419.7 348.37 1521.41 278.62 1626.07 278.37" stroke="rgba(51,121,194,0.58)" stroke-width="2"></path><path d="M204.1 650.39C391.9 641.59 538.92 319.04 879.02 318.71 1219.12 318.38 1380.4 479.97 1553.94 481.11" stroke="rgba(51,121,194,0.58)" stroke-width="2"></path></g><defs><mask id="SvgjsMask1000"><rect width="1440" height="560" fill="#ffffff"></rect></mask></defs></svg>